# Blender v2.79 (sub 0) OBJ File: ''
# www.blender.org
mtllib defuser.mtl
o Cylinder
v -3.457985 -4.427654 0.521659
v -2.928628 -5.147122 0.536211
v -4.336017 -5.353219 0.520261
v -3.652901 -6.281668 0.539040
v 1.980199 -5.242346 0.622837
v 2.523515 -4.543796 0.622352
v 2.681863 -6.404699 0.644366
v 3.382991 -5.503246 0.643740
v 1.980199 -5.242346 0.622837
v 2.523515 -4.543796 0.622352
v 2.681863 -6.404699 0.644366
v 3.382991 -5.503246 0.643740
v 2.954677 -3.720612 0.520054
v 3.254059 -2.799907 0.514037
v 3.938938 -4.440288 0.540479
v 4.325279 -3.252152 0.532715
v 3.411240 -1.818668 0.535642
v 3.421109 -0.815977 0.525009
v 4.528254 -1.986102 0.551853
v 4.540990 -0.692166 0.538132
v -3.456147 -4.430371 0.404976
v -2.926790 -5.149840 0.419528
v -4.334179 -5.355936 0.403578
v -3.651064 -6.284385 0.422357
v -4.150421 -2.656507 0.373172
v -3.869277 -3.588534 0.386802
v -5.230131 -3.066804 0.363642
v -4.867325 -4.269551 0.381231
v -4.278846 -0.667511 0.350302
v -4.288716 -1.670194 0.360935
v -5.395858 -0.500078 0.334090
v -5.408596 -1.794003 0.347811
v -3.821711 1.233585 0.329486
v -4.121092 0.312880 0.335503
v -4.805971 1.953260 0.309061
v -5.192312 0.765124 0.316826
v -2.850708 2.760456 0.447297
v -3.394023 2.061905 0.447782
v -3.552371 3.922808 0.425768
v -4.253499 3.021355 0.426394
v -1.510296 3.675667 0.471883
v -2.214829 3.305620 0.466763
v -1.822540 5.103740 0.452529
v -2.731715 4.626207 0.445920
v 3.282398 0.170951 0.539177
v 3.001253 1.102978 0.525547
v 4.362108 0.581249 0.548708
v 3.999301 1.783995 0.531118
v 2.587541 1.945672 0.544257
v 2.058184 2.665141 0.529705
v 3.465573 2.871238 0.545655
v 2.782457 3.799686 0.526876
v 1.432935 3.234604 0.519806
v 0.735955 3.631983 0.506548
v 1.975615 4.534529 0.512860
v 1.076188 5.047331 0.495749
v -0.007577 3.844379 0.592379
v -0.766071 3.859170 0.582432
v 0.117134 5.320761 0.578144
v -0.861674 5.339849 0.565308
v 2.591505 1.939811 0.292570
v 2.062148 2.659280 0.278018
v 3.469537 2.865377 0.293968
v 2.786421 3.793825 0.275189
v 2.593576 1.936749 0.161058
v 2.064219 2.656218 0.146505
v 3.471608 2.862315 0.162456
v 2.788492 3.790763 0.143677
v -3.429078 2.097209 -0.224420
v -4.247748 3.012852 0.061222
v -4.802135 1.947588 0.065500
v -3.865305 1.258993 -0.221054
v -4.284781 -1.676013 0.111063
v -4.146487 -2.662323 0.123432
v -3.865344 -3.594349 0.137062
v -3.452154 -4.436275 0.151429
v -2.922797 -5.155744 0.165982
v -2.297616 -5.725109 0.180160
v -1.600636 -6.122488 0.193419
v -0.858642 -6.332613 0.205249
v -0.100148 -6.347404 0.215196
v 0.645697 -6.166298 0.222878
v 1.350232 -5.796251 0.227999
v 1.986380 -5.251485 0.230362
v 2.529696 -4.552935 0.229877
v 2.959299 -3.727446 0.226562
v 3.258681 -2.806741 0.220545
v 3.416336 -1.826203 0.212057
v 3.426206 -0.823512 0.201424
v 3.287911 0.162798 0.189055
v 3.006767 1.094825 0.175425
v 2.593576 1.936749 0.161058
v 2.064219 2.656218 0.146505
v 1.439037 3.225581 0.132327
v 0.742057 3.622960 0.119068
v 0.000063 3.833082 0.107238
v -0.758430 3.847873 0.097291
v -1.504275 3.666766 0.089609
v -2.208809 3.296719 0.084489
v -2.844957 2.751952 0.082125
v -3.388272 2.053402 0.082610
v -3.817875 1.227913 0.085925
v -4.117256 0.307208 0.091942
v -4.274911 -0.673330 0.100430
v -4.339410 -1.689708 -0.195528
v -5.404661 -1.799822 0.097939
v -4.198984 -2.691226 -0.182968
v -5.226198 -3.072619 0.113901
v -3.913505 -3.637623 -0.169128
v -4.863392 -4.275366 0.131491
v -3.493945 -4.492529 -0.154539
v -4.330186 -5.361840 0.150031
v -2.956427 -5.223092 -0.139763
v -3.647071 -6.290289 0.168810
v -2.321606 -5.801236 -0.125366
v -2.840297 -7.025033 0.187107
v -1.613879 -6.204743 -0.111903
v -1.940870 -7.537838 0.204217
v -0.860445 -6.418106 -0.099890
v -0.983354 -7.808995 0.219483
v -0.090256 -6.433126 -0.089789
v -0.004545 -7.828084 0.232320
v 0.667090 -6.249227 -0.081989
v 0.957942 -7.594372 0.242233
v 1.382487 -5.873474 -0.076790
v 1.867118 -7.116839 0.248841
v 2.028444 -5.320309 -0.074390
v 2.688044 -6.413839 0.251891
v 2.580137 -4.610989 -0.074882
v 3.389173 -5.512386 0.251265
v 3.016364 -3.772772 -0.078248
v 3.943560 -4.447123 0.246987
v 3.320362 -2.837871 -0.084358
v 4.329901 -3.258986 0.239223
v 3.480448 -1.842214 -0.092977
v 4.533350 -1.993637 0.228269
v 3.490470 -0.824063 -0.103774
v 4.546086 -0.699701 0.214548
v 3.350043 0.177455 -0.116334
v 4.367622 0.573096 0.198586
v 3.064564 1.123852 -0.130174
v 4.004815 1.775842 0.180996
v 2.645002 1.978758 -0.144763
v 3.471608 2.862315 0.162456
v 2.107483 2.709319 -0.159539
v 2.788492 3.790763 0.143677
v 1.472662 3.287462 -0.173936
v 1.981718 4.525506 0.125380
v 0.764935 3.690968 -0.187399
v 1.082290 5.038309 0.108270
v 0.011501 3.904329 -0.199412
v 0.124774 5.309464 0.093004
v -0.758688 3.919349 -0.209513
v -0.854034 5.328552 0.080167
v -1.516033 3.735449 -0.217313
v -1.816520 5.094838 0.070255
v -2.231429 3.359696 -0.222512
v -2.725694 4.617306 0.063646
v -2.877385 2.806530 -0.224912
v -3.546620 3.914305 0.060597
v -3.429078 2.097209 -0.224420
v -4.247748 3.012852 0.061222
v -3.865305 1.258993 -0.221054
v -4.802135 1.947588 0.065500
v -4.169302 0.324091 -0.214944
v -5.188476 0.759452 0.073265
v -4.329388 -0.671565 -0.206325
v -5.391923 -0.505897 0.084218
vt 0.267087 0.232261
vt 0.262481 0.227531
vt 0.199067 0.153086
vt 0.204674 0.158996
vt 0.220369 0.281354
vt 0.214990 0.277460
vt 0.145148 0.221988
vt 0.138570 0.217144
vt 0.857169 0.184623
vt 0.857169 0.184623
vt 0.787051 0.122733
vt 0.787051 0.122733
vt 0.773032 0.255481
vt 0.773032 0.255481
vt 0.719409 0.207197
vt 0.719409 0.207197
vt 0.759963 0.269977
vt 0.839286 0.203190
vt 0.709419 0.224302
vt 0.773242 0.144620
vt 0.829518 0.387408
vt 0.842340 0.381823
vt 0.948291 0.347911
vt 0.930832 0.354992
vt 0.892650 0.274209
vt 0.908297 0.263583
vt 0.812086 0.316733
vt 0.800606 0.325044
vt 0.954778 0.532477
vt 0.975488 0.533440
vt 0.972420 0.438765
vt 0.951928 0.442299
vt 0.860370 0.451694
vt 0.845331 0.454589
vt 0.847231 0.523825
vt 0.862407 0.524350
vt 0.216244 0.171194
vt 0.158727 0.231986
vt 0.231465 0.289386
vt 0.276587 0.242018
vt 0.113760 0.302196
vt 0.098842 0.294822
vt 0.066802 0.374743
vt 0.082803 0.379419
vt 0.196204 0.344241
vt 0.184049 0.338278
vt 0.171994 0.404650
vt 0.158984 0.400818
vt 0.159678 0.468517
vt 0.146207 0.466936
vt 0.050307 0.459226
vt 0.066902 0.461054
vt 0.159732 0.533628
vt 0.146228 0.534351
vt 0.050012 0.545451
vt 0.066670 0.544357
vt 0.196912 0.658461
vt 0.184943 0.663518
vt 0.159479 0.600633
vt 0.172246 0.597706
vt 0.066502 0.630391
vt 0.082267 0.626495
vt 0.098586 0.711222
vt 0.113372 0.704600
vt 0.218279 0.837481
vt 0.200991 0.854869
vt 0.265344 0.774512
vt 0.279395 0.761178
vt 0.216568 0.724366
vt 0.233008 0.713657
vt 0.138868 0.789801
vt 0.159159 0.775835
vt 0.288855 0.887030
vt 0.274558 0.908252
vt 0.358627 0.945731
vt 0.368491 0.922296
vt 0.388226 0.843714
vt 0.396478 0.825826
vt 0.322815 0.815357
vt 0.334529 0.799112
vt 0.905382 0.705904
vt 0.925238 0.716395
vt 0.960757 0.627545
vt 0.939068 0.621642
vt 0.809181 0.656844
vt 0.823644 0.664580
vt 0.850883 0.596466
vt 0.835029 0.592211
vt 0.795648 0.851988
vt 0.805626 0.865245
vt 0.873987 0.797633
vt 0.861392 0.786886
vt 0.784397 0.726922
vt 0.775279 0.718927
vt 0.732168 0.779008
vt 0.725023 0.769089
vt 0.714928 0.894862
vt 0.725379 0.917753
vt 0.670782 0.819693
vt 0.663478 0.802487
vt 0.599227 0.828388
vt 0.602692 0.847040
vt 0.636551 0.952647
vt 0.631159 0.927934
vt 0.543059 0.943583
vt 0.543238 0.975929
vt 0.530773 0.865518
vt 0.531462 0.841010
vt 0.454317 0.941539
vt 0.447881 0.973455
vt 0.457199 0.864338
vt 0.462970 0.840061
vt 0.770781 0.714982
vt 0.721497 0.764196
vt 0.790727 0.845450
vt 0.855182 0.781587
vt 0.721497 0.764196
vt 0.790727 0.845450
vt 0.770781 0.714982
vt 0.855182 0.781587
vt 0.241768 0.708669
vt 0.241768 0.708669
vt 0.159159 0.775835
vt 0.113372 0.704600
vt 0.206567 0.654938
vt 0.206567 0.654938
vt 0.361156 0.086222
vt 0.390063 0.176337
vt 0.330057 0.203851
vt 0.284461 0.121986
vt 0.651150 0.189651
vt 0.697445 0.100538
vt 0.443770 0.065398
vt 0.454535 0.160610
vt 0.529444 0.060573
vt 0.521184 0.157435
vt 0.615084 0.072298
vt 0.587565 0.167155
vt 0.170270 0.533359
vt 0.170192 0.469926
vt 0.182177 0.407702
vt 0.205763 0.348848
vt 0.240127 0.295412
vt 0.284103 0.249281
vt 0.336212 0.212129
vt 0.394684 0.185367
vt 0.457492 0.170100
vt 0.522404 0.167064
vt 0.587035 0.176588
vt 0.648921 0.198544
vt 0.705611 0.232322
vt 0.754768 0.276813
vt 0.794279 0.330423
vt 0.822373 0.391111
vt 0.837726 0.456467
vt 0.839554 0.523808
vt 0.827676 0.590314
vt 0.802539 0.653170
vt 0.765201 0.709717
vt 0.717280 0.757596
vt 0.660860 0.794867
vt 0.598366 0.820099
vt 0.532436 0.832424
vt 0.465778 0.831553
vt 0.401042 0.817752
vt 0.340706 0.791798
vt 0.286986 0.754909
vt 0.182497 0.595774
vn 0.8426 -0.5379 0.0258
vn 0.8055 0.5926 -0.0011
vn -0.7252 0.6880 -0.0274
vn -0.0129 0.0107 0.9999
vn 0.0000 0.0000 1.0000
vn 0.7449 0.6672 -0.0038
vn -0.7891 0.6137 -0.0267
vn -0.8561 -0.5168 -0.0014
vn 0.3891 0.9211 -0.0153
vn -0.5903 -0.8071 0.0095
vn 0.9508 -0.3090 0.0222
vn 0.9998 -0.0097 0.0160
vn -0.1485 -0.9887 0.0207
vn -0.1096 0.9937 -0.0249
vn -0.8055 -0.5926 0.0011
vn -0.9573 -0.2889 -0.0083
vn 0.5633 -0.8258 0.0281
vn 0.9573 0.2889 0.0084
vn 0.1096 -0.9937 0.0249
vn -0.9998 0.0097 -0.0160
vn -0.3891 -0.9211 0.0153
vn -0.9508 0.3090 -0.0222
vn 0.8561 0.5168 0.0014
vn 0.7891 -0.6137 0.0267
vn -0.7449 -0.6672 0.0038
vn -0.4647 0.8850 -0.0279
vn 0.9768 0.2137 0.0104
vn 0.4647 -0.8850 0.0279
vn 0.9573 0.2889 0.0083
vn -0.5633 0.8258 -0.0281
vn 0.3549 -0.9345 0.0274
vn 0.7252 -0.6880 0.0274
vn 0.9226 -0.3850 0.0235
vn -0.9721 0.2335 -0.0207
vn -0.4954 -0.8686 0.0124
vn 0.9963 -0.0840 0.0176
vn 0.0198 0.9995 -0.0230
vn -0.0198 -0.9995 0.0230
vn -0.8426 0.5379 -0.0258
vn -0.9978 -0.0646 -0.0142
vn -0.3549 0.9345 -0.0274
vn 0.5903 0.8071 -0.0095
vn -0.9312 -0.3646 -0.0062
vn 0.4954 0.8686 -0.0124
vn 0.1485 0.9887 -0.0207
vn -0.2167 0.1089 -0.9701
vn -0.2649 -0.0076 -0.9643
vn -0.2606 -0.0486 -0.9642
vn -0.2461 -0.0884 -0.9652
vn -0.2219 -0.1254 -0.9670
vn -0.1885 -0.1583 -0.9692
vn -0.1471 -0.1857 -0.9715
vn -0.0992 -0.2065 -0.9734
vn -0.0467 -0.2196 -0.9745
vn 0.0084 -0.2245 -0.9744
vn 0.0636 -0.2208 -0.9732
vn 0.1167 -0.2088 -0.9710
vn 0.1655 -0.1890 -0.9679
vn 0.2079 -0.1624 -0.9646
vn 0.2426 -0.1301 -0.9614
vn 0.2683 -0.0935 -0.9588
vn 0.2843 -0.0540 -0.9572
vn 0.2901 -0.0130 -0.9569
vn 0.2856 0.0280 -0.9579
vn 0.2709 0.0677 -0.9602
vn 0.2464 0.1045 -0.9635
vn 0.2130 0.1371 -0.9674
vn 0.1716 0.1643 -0.9714
vn 0.1239 0.1848 -0.9749
vn 0.0716 0.1977 -0.9776
vn 0.0168 0.2024 -0.9792
vn -0.0382 0.1987 -0.9793
vn -0.0910 0.1868 -0.9782
vn -0.1396 0.1672 -0.9760
vn -0.1820 0.1409 -0.9732
vn -0.2426 0.0726 -0.9674
vn -0.2588 0.0333 -0.9654
usemtl Material.001
s off
f 22/1/1 2/2/1 4/3/1 24/4/1
f 21/5/2 1/6/2 2/2/2 22/1/2
f 23/7/3 3/8/3 1/6/3 21/5/3
f 4/3/4 2/2/4 1/6/4 3/8/4
f 12/9/5 8/10/5 7/11/5 11/12/5
f 10/13/5 6/14/5 8/10/5 12/9/5
f 9/15/5 5/16/5 6/14/5 10/13/5
f 8/10/4 6/14/4 5/16/4 7/11/4
f 85/17/6 10/13/6 12/9/6 130/18/6
f 84/19/7 9/15/7 10/13/7 85/17/7
f 128/20/8 11/12/8 9/15/8 84/19/8
f 11/12/5 7/11/5 5/16/5 9/15/5
f 87/21/9 14/22/9 16/23/9 134/24/9
f 132/25/10 15/26/10 13/27/10 86/28/10
f 134/24/11 16/23/11 15/26/11 132/25/11
f 16/23/4 14/22/4 13/27/4 15/26/4
f 138/29/12 20/30/12 19/31/12 136/32/12
f 136/32/13 19/31/13 17/33/13 88/34/13
f 89/35/14 18/36/14 20/30/14 138/29/14
f 20/30/4 18/36/4 17/33/4 19/31/4
f 114/37/15 24/4/15 23/7/15 112/38/15
f 76/39/2 21/5/2 22/1/2 77/40/2
f 112/38/3 23/7/3 21/5/3 76/39/3
f 24/4/15 4/3/15 3/8/15 23/7/15
f 110/41/16 28/42/16 27/43/16 108/44/16
f 75/45/17 26/46/17 28/42/17 110/41/17
f 74/47/18 25/48/18 26/46/18 75/45/18
f 28/42/4 26/46/4 25/48/4 27/43/4
f 73/49/19 30/50/19 32/51/19 106/52/19
f 104/53/12 29/54/12 30/50/12 73/49/12
f 106/52/20 32/51/20 31/55/20 168/56/20
f 32/51/4 30/50/4 29/54/4 31/55/4
f 102/57/11 33/58/11 34/59/11 103/60/11
f 103/60/21 34/59/21 36/61/21 166/62/21
f 166/62/22 36/61/22 35/63/22 164/64/22
f 36/61/4 34/59/4 33/58/4 35/63/4
f 160/65/23 39/66/23 37/67/23 100/68/23
f 100/68/24 37/67/24 38/69/24 101/70/24
f 101/70/25 38/69/25 40/71/25 162/72/25
f 40/71/4 38/69/4 37/67/4 39/66/4
f 158/73/26 44/74/26 43/75/26 156/76/26
f 156/76/27 43/75/27 41/77/27 98/78/27
f 98/78/28 41/77/28 42/79/28 99/80/28
f 44/74/4 42/79/4 41/77/4 43/75/4
f 142/81/29 48/82/29 47/83/29 140/84/29
f 91/85/30 46/86/30 48/82/30 142/81/30
f 140/84/31 47/83/31 45/87/31 90/88/31
f 48/82/4 46/86/4 45/87/4 47/83/4
f 64/89/2 52/90/2 51/91/2 63/92/2
f 63/92/32 51/91/32 49/93/32 61/94/32
f 61/94/15 49/93/15 50/95/15 62/96/15
f 52/90/4 50/95/4 49/93/4 51/91/4
f 148/97/33 55/98/33 53/99/33 94/100/33
f 95/101/34 54/102/34 56/103/34 150/104/34
f 94/100/35 53/99/35 54/102/35 95/101/35
f 56/103/4 54/102/4 53/99/4 55/98/4
f 152/105/36 59/106/36 57/107/36 96/108/36
f 154/109/37 60/110/37 59/106/37 152/105/37
f 96/108/38 57/107/38 58/111/38 97/112/38
f 60/110/4 58/111/4 57/107/4 59/106/4
f 65/113/15 61/94/15 62/96/15 66/114/15
f 68/115/2 64/89/2 63/92/2 67/116/2
f 62/96/39 50/95/39 52/90/39 64/89/39
f 93/117/5 66/114/5 68/115/5 146/118/5
f 92/119/5 65/113/5 66/114/5 93/117/5
f 144/120/5 67/116/5 65/113/5 92/119/5
f 67/116/32 63/92/32 61/94/32 65/113/32
f 161/121/5 69/122/5 70/123/5 162/72/5
f 164/64/5 71/124/5 72/125/5 163/126/5
f 118/127/4 79/128/4 78/129/4 116/130/4
f 136/32/4 88/34/4 87/21/4 134/24/4
f 97/112/40 58/111/40 60/110/40 154/109/40
f 108/44/41 27/43/41 25/48/41 74/47/41
f 128/20/4 84/19/4 83/131/4 126/132/4
f 146/118/5 68/115/5 67/116/5 144/120/5
f 164/64/4 102/57/4 101/70/4 162/72/4
f 120/133/4 80/134/4 79/128/4 118/127/4
f 88/34/20 17/33/20 18/36/20 89/35/20
f 156/76/4 98/78/4 97/112/4 154/109/4
f 112/38/4 76/39/4 75/45/4 110/41/4
f 130/18/24 12/9/24 11/12/24 128/20/24
f 148/97/4 94/100/4 93/117/4 146/118/4
f 164/64/42 35/63/42 33/58/42 102/57/42
f 122/135/4 81/136/4 80/134/4 120/133/4
f 140/84/4 90/88/4 89/35/4 138/29/4
f 99/80/43 42/79/43 44/74/43 158/73/43
f 77/40/1 22/1/1 24/4/1 114/37/1
f 132/25/4 86/28/4 85/17/4 130/18/4
f 150/104/44 56/103/44 55/98/44 148/97/44
f 168/56/45 31/55/45 29/54/45 104/53/45
f 168/56/4 104/53/4 103/60/4 166/62/4
f 124/137/4 82/138/4 81/136/4 122/135/4
f 90/88/16 45/87/16 46/86/16 91/85/16
f 160/65/4 100/68/4 99/80/4 158/73/4
f 116/130/4 78/129/4 77/40/4 114/37/4
f 86/28/22 13/27/22 14/22/22 87/21/22
f 152/105/4 96/108/4 95/101/4 150/104/4
f 108/44/4 74/47/4 73/49/4 106/52/4
f 126/132/4 83/131/4 82/138/4 124/137/4
f 144/120/4 92/119/4 91/85/4 142/81/4
f 71/124/46 70/123/46 69/122/46 72/125/46
f 162/72/7 40/71/7 39/66/7 160/65/7
f 106/52/47 168/56/47 167/139/47 105/140/47
f 108/44/48 106/52/48 105/140/48 107/141/48
f 163/126/5 72/125/5 69/122/5 161/121/5
f 110/41/49 108/44/49 107/141/49 109/142/49
f 112/38/50 110/41/50 109/142/50 111/143/50
f 114/37/51 112/38/51 111/143/51 113/144/51
f 116/130/52 114/37/52 113/144/52 115/145/52
f 118/127/53 116/130/53 115/145/53 117/146/53
f 120/133/54 118/127/54 117/146/54 119/147/54
f 122/135/55 120/133/55 119/147/55 121/148/55
f 124/137/56 122/135/56 121/148/56 123/149/56
f 126/132/57 124/137/57 123/149/57 125/150/57
f 128/20/58 126/132/58 125/150/58 127/151/58
f 130/18/59 128/20/59 127/151/59 129/152/59
f 132/25/60 130/18/60 129/152/60 131/153/60
f 134/24/61 132/25/61 131/153/61 133/154/61
f 136/32/62 134/24/62 133/154/62 135/155/62
f 138/29/63 136/32/63 135/155/63 137/156/63
f 140/84/64 138/29/64 137/156/64 139/157/64
f 142/81/65 140/84/65 139/157/65 141/158/65
f 144/120/66 142/81/66 141/158/66 143/159/66
f 146/118/67 144/120/67 143/159/67 145/160/67
f 148/97/68 146/118/68 145/160/68 147/161/68
f 150/104/69 148/97/69 147/161/69 149/162/69
f 152/105/70 150/104/70 149/162/70 151/163/70
f 154/109/71 152/105/71 151/163/71 153/164/71
f 156/76/72 154/109/72 153/164/72 155/165/72
f 158/73/73 156/76/73 155/165/73 157/166/73
f 160/65/74 158/73/74 157/166/74 159/167/74
f 162/72/75 160/65/75 159/167/75 161/121/75
f 162/72/5 70/123/5 71/124/5 164/64/5
f 166/62/76 164/64/76 163/126/76 165/168/76
f 168/56/77 166/62/77 165/168/77 167/139/77
