# Blender v2.79 (sub 0) OBJ File: ''
# www.blender.org
mtllib background.mtl
o Cube
v 2176.000000 -640.000000 -1.000000
v 2176.000000 -640.000000 1.000000
v -2176.000244 -640.000000 1.000000
v -2175.999268 -640.000000 -1.000000
v 2176.000977 640.000000 -0.999999
v 2175.998535 640.000000 1.000001
v -2176.000732 640.000000 1.000000
v -2175.999756 640.000000 -1.000000
vt 0.998664 0.001628
vt 1.000206 1.002936
vt 0.001336 0.998378
vt 0.000403 0.004552
vt 0.998664 0.001628
vt 1.000036 0.998663
vt 0.001336 0.998378
vt 0.000038 0.005792
vt 1.000036 0.998663
vt 0.001336 0.998378
vt 0.000768 0.004552
vt 0.998664 0.001628
vt 1.001194 0.996694
vt 0.000768 0.004552
vt 0.998664 0.001628
vt 0.998878 0.998663
vt 0.001336 0.998378
vt 0.998878 1.002600
vt 0.001336 0.998378
vt 0.000768 0.004552
vn 0.0000 -1.0000 0.0000
vn 0.0000 1.0000 0.0000
vn 1.0000 0.0000 0.0006
vn -0.0000 -0.0000 1.0000
vn -1.0000 -0.0000 -0.0005
vn 0.0000 0.0000 -1.0000
usemtl Material
s off
f 1/1/1 2/2/1 3/3/1 4/4/1
f 5/5/2 8/6/2 7/7/2 6/8/2
f 1/1/3 5/9/3 6/10/3 2/11/3
f 2/12/4 6/13/4 7/7/4 3/14/4
f 3/15/5 7/16/5 8/17/5 4/4/5
f 5/5/6 1/18/6 4/19/6 8/20/6
