# Blender v2.79 (sub 0) OBJ File: ''
# www.blender.org
mtllib elevatorSign.mtl
o Cube.001
v 0.000151 -2.557619 -0.106587
v 1.767695 -1.129142 -0.106587
v 1.767694 1.336162 -0.106587
v 0.004545 2.557619 -0.106587
v -0.010072 2.557619 -0.106587
v -1.767696 1.133073 -0.106587
v -1.767696 -1.011325 -0.106587
v -0.025929 -2.557619 -0.106587
vt 0.506500 0.000100
vt 0.999900 0.282300
vt 0.995100 0.760700
vt 0.497700 0.992700
vt 0.489700 0.999600
vt 0.000100 0.716300
vt 0.000100 0.300200
vt 0.489100 0.000100
vn 0.0000 0.0000 1.0000
usemtl Material.001
s 1
f 1/1/1 2/2/1 3/3/1 4/4/1 5/5/1 6/6/1 7/7/1 8/8/1
